<?xml version="1.0" encoding="utf-8"?><svg xmlns="http://www.w3.org/2000/svg" xmlns:xlink="http://www.w3.org/1999/xlink" width="1440" height="821" preserveAspectRatio="xMidYMid" viewBox="0 0 1440 821" style="z-index:1;margin-right:-2px;display:block;background-repeat-y:initial;background-repeat-x:initial;background-color:rgb(153, 204, 255);animation-play-state:paused" ><g transform="translate(720,410.5) scale(1,1) translate(-720,-410.5)" style="transform:matrix(1, 0, 0, 1, 0, 0);animation-play-state:paused" ><defs style="animation-play-state:paused" ><linearGradient id="lg-0.528511742034173" x1="0" x2="0" y1="0" y2="1" style="animation-play-state:paused" ><stop stop-color="#ffffff" offset="0" style="animation-play-state:paused" ></stop>


<stop stop-color="#0097ff" offset="1" style="animation-play-state:paused" ></stop></linearGradient></defs>


<rect x="0" y="0" width="1440" height="821" fill="url(#lg-0.528511742034173)" style="animation-play-state:paused" ></rect>
<circle cx="0" cy="628.6307247314858" r="56.974396057095234" fill="#91cbf0" transform="matrix(1,0,0,1,0,0)" style="transform:matrix(1, 0, 0, 1, 0, 0);animation-play-state:paused" ></circle>
<circle cx="56.974396057095234" cy="627.0388806461768" r="63.31078522860277" fill="#91cbf0" transform="matrix(1,0,0,1,-0.005429744720458984,0)" style="transform:matrix(1, 0, 0, 1, -0.00542974, 0);animation-play-state:paused" ></circle>
<circle cx="120.285181285698" cy="651.8686526321677" r="45.15280859451201" fill="#91cbf0" transform="matrix(1,0,0,1,-0.022117653861641884,0)" style="transform:matrix(1, 0, 0, 1, -0.0221177, 0);animation-play-state:paused" ></circle>
<circle cx="165.43798988021" cy="656.6091344855593" r="43.70028755382933" fill="#91cbf0" transform="matrix(1,0,0,1,-0.05069183558225632,0)" style="transform:matrix(1, 0, 0, 1, -0.0506918, 0);animation-play-state:paused" ></circle>
<circle cx="209.13827743403934" cy="648.1678179692665" r="57.352719775667076" fill="#91cbf0" transform="matrix(1,0,0,1,-0.09182170033454895,0)" style="transform:matrix(1, 0, 0, 1, -0.0918217, 0);animation-play-state:paused" ></circle>
<circle cx="266.4909972097064" cy="630.0953760636481" r="88.51593709237454" fill="#91cbf0" transform="matrix(1,0,0,1,-0.14621886610984802,0)" style="transform:matrix(1, 0, 0, 1, -0.146219, 0);animation-play-state:paused" ></circle>
<circle cx="355.00693430208094" cy="668.5106514480839" r="46.83269557043292" fill="#91cbf0" transform="matrix(1,0,0,1,-0.21463720500469208,0)" style="transform:matrix(1, 0, 0, 1, -0.214637, 0);animation-play-state:paused" ></circle>
<circle cx="401.83962987251385" cy="679.9757256863143" r="32.105081422046645" fill="#91cbf0" transform="matrix(1,0,0,1,-0.2978716492652893,0)" style="transform:matrix(1, 0, 0, 1, -0.297872, 0);animation-play-state:paused" ></circle>
<circle cx="433.9447112945605" cy="664.3990629488206" r="68.38035513774322" fill="#91cbf0" transform="matrix(1,0,0,1,-0.3967548906803131,0)" style="transform:matrix(1, 0, 0, 1, -0.396755, 0);animation-play-state:paused" ></circle>
<circle cx="502.3250664323037" cy="683.6500569560542" r="36.7978328743875" fill="#91cbf0" transform="matrix(1,0,0,1,-0.5121519565582275,0)" style="transform:matrix(1, 0, 0, 1, -0.512152, 0);animation-play-state:paused" ></circle>
<circle cx="539.1228993066912" cy="682.0310577788694" r="49.65451844513457" fill="#91cbf0" transform="matrix(1,0,0,1,-0.6449503302574158,0)" style="transform:matrix(1, 0, 0, 1, -0.64495, 0);animation-play-state:paused" ></circle>
<circle cx="588.7774177518259" cy="680.8593178583956" r="73.80139240551661" fill="#91cbf0" transform="matrix(1,0,0,1,-0.7960466146469116,0)" style="transform:matrix(1, 0, 0, 1, -0.796047, 0);animation-play-state:paused" ></circle>
<circle cx="662.5788101573424" cy="691.037152880655" r="62.306411298867836" fill="#91cbf0" transform="matrix(1,0,0,1,-0.9663257002830505,0)" style="transform:matrix(1, 0, 0, 1, -0.966326, 0);animation-play-state:paused" ></circle>
<circle cx="724.8852214562103" cy="696.3058007144493" r="85.26114426212547" fill="#91cbf0" transform="matrix(1,0,0,1,-1.156632423400879,0)" style="transform:matrix(1, 0, 0, 1, -1.15663, 0);animation-play-state:paused" ></circle>
<circle cx="810.1463657183358" cy="690.1558559561586" r="45.55354387924731" fill="#91cbf0" transform="matrix(1,0,0,1,-1.3677335977554321,0)" style="transform:matrix(1, 0, 0, 1, -1.36773, 0);animation-play-state:paused" ></circle>
<circle cx="855.6999095975831" cy="679.2212174159001" r="78.60926055215222" fill="#91cbf0" transform="matrix(1,0,0,1,-1.600266933441162,0)" style="transform:matrix(1, 0, 0, 1, -1.60027, 0);animation-play-state:paused" ></circle>
<circle cx="934.3091701497353" cy="671.1160827379608" r="72.46703604130731" fill="#91cbf0" transform="matrix(1,0,0,1,-1.8546782732009888,0)" style="transform:matrix(1, 0, 0, 1, -1.85468, 0);animation-play-state:paused" ></circle>
<circle cx="1006.7762061910427" cy="677.1346154737188" r="41.56283003419202" fill="#91cbf0" transform="matrix(1,0,0,1,-2.131143569946289,0)" style="transform:matrix(1, 0, 0, 1, -2.13114, 0);animation-play-state:paused" ></circle>
<circle cx="1048.3390362252346" cy="663.4211773934652" r="61.36124962643864" fill="#91cbf0" transform="matrix(1,0,0,1,-2.4294803142547607,0)" style="transform:matrix(1, 0, 0, 1, -2.42948, 0);animation-play-state:paused" ></circle>
<circle cx="1109.7002858516732" cy="637.3463919440003" r="91.84536458673007" fill="#91cbf0" transform="matrix(1,0,0,1,-2.749046802520752,0)" style="transform:matrix(1, 0, 0, 1, -2.74905, 0);animation-play-state:paused" ></circle>
<circle cx="1201.5456504384033" cy="640.8353512145976" r="69.98046652599143" fill="#91cbf0" transform="matrix(1,0,0,1,-3.0886495113372803,0)" style="transform:matrix(1, 0, 0, 1, -3.08865, 0);animation-play-state:paused" ></circle>
<circle cx="1271.5261169643948" cy="613.58138289034" r="90.75031757567191" fill="#91cbf0" transform="matrix(1,0,0,1,-3.446460723876953,0)" style="transform:matrix(1, 0, 0, 1, -3.44646, 0);animation-play-state:paused" ></circle>
<circle cx="1362.2764345400667" cy="646.2217187319607" r="47.43591251738971" fill="#91cbf0" transform="matrix(1,0,0,1,-3.819972276687622,0)" style="transform:matrix(1, 0, 0, 1, -3.81997, 0);animation-play-state:paused" ></circle>
<circle cx="1409.7123470574563" cy="609.5319830935175" r="76.09086652977892" fill="#91cbf0" transform="matrix(1,0,0,1,-4.205999374389648,0)" style="transform:matrix(1, 0, 0, 1, -4.206, 0);animation-play-state:paused" ></circle>
<circle cx="1485.8032135872352" cy="647.2388579176328" r="38.98741180461145" fill="#91cbf0" transform="matrix(1,0,0,1,-4.60075569152832,0)" style="transform:matrix(1, 0, 0, 1, -4.60076, 0);animation-play-state:paused" ></circle>
<circle cx="0" cy="665.3869119576798" r="78.01090670193352" fill="#c3d9f9" transform="matrix(1,0,0,1,0,0)" style="transform:matrix(1, 0, 0, 1, 0, 0);animation-play-state:paused" ></circle>
<circle cx="78.01090670193352" cy="702.1473587654484" r="53.13421224259562" fill="#c3d9f9" transform="matrix(1,0,0,1,-0.022117653861641884,0)" style="transform:matrix(1, 0, 0, 1, -0.0221177, 0);animation-play-state:paused" ></circle>
<circle cx="131.14511894452914" cy="696.2181189635666" r="63.970139050798856" fill="#c3d9f9" transform="matrix(1,0,0,1,-0.09182170033454895,0)" style="transform:matrix(1, 0, 0, 1, -0.0918217, 0);animation-play-state:paused" ></circle>
<circle cx="195.115257995328" cy="679.7032771655627" r="90.64472615254431" fill="#c3d9f9" transform="matrix(1,0,0,1,-0.21463720500469208,0)" style="transform:matrix(1, 0, 0, 1, -0.214637, 0);animation-play-state:paused" ></circle>
<circle cx="285.7599841478723" cy="722.768379606391" r="50.06211183348937" fill="#c3d9f9" transform="matrix(1,0,0,1,-0.3967548906803131,0)" style="transform:matrix(1, 0, 0, 1, -0.396755, 0);animation-play-state:paused" ></circle>
<circle cx="335.82209598136166" cy="725.1816062467843" r="52.8167706671255" fill="#c3d9f9" transform="matrix(1,0,0,1,-0.6449503302574158,0)" style="transform:matrix(1, 0, 0, 1, -0.64495, 0);animation-play-state:paused" ></circle>
<circle cx="388.6388666484872" cy="724.6092919015751" r="62.27171138132729" fill="#c3d9f9" transform="matrix(1,0,0,1,-0.9663257002830505,0)" style="transform:matrix(1, 0, 0, 1, -0.966326, 0);animation-play-state:paused" ></circle>
<circle cx="450.9105780298145" cy="718.814137971343" r="89.6041064738163" fill="#c3d9f9" transform="matrix(1,0,0,1,-1.3677335977554321,0)" style="transform:matrix(1, 0, 0, 1, -1.36773, 0);animation-play-state:paused" ></circle>
<circle cx="540.5146845036307" cy="732.599898440777" r="88.25268458162084" fill="#c3d9f9" transform="matrix(1,0,0,1,-1.8546782732009888,0)" style="transform:matrix(1, 0, 0, 1, -1.85468, 0);animation-play-state:paused" ></circle>
<circle cx="628.7673690852516" cy="747.8653178409713" r="73.2282871647102" fill="#c3d9f9" transform="matrix(1,0,0,1,-2.4294803142547607,0)" style="transform:matrix(1, 0, 0, 1, -2.42948, 0);animation-play-state:paused" ></circle>
<circle cx="701.9956562499618" cy="757.7237515274537" r="42.53135210918959" fill="#c3d9f9" transform="matrix(1,0,0,1,-3.0886495113372803,0)" style="transform:matrix(1, 0, 0, 1, -3.08865, 0);animation-play-state:paused" ></circle>
<circle cx="744.5270083591514" cy="756.8343406881812" r="52.978152413213664" fill="#c3d9f9" transform="matrix(1,0,0,1,-3.819972276687622,0)" style="transform:matrix(1, 0, 0, 1, -3.81997, 0);animation-play-state:paused" ></circle>
<circle cx="797.5051607723651" cy="749.1244734868234" r="76.45059824220954" fill="#c3d9f9" transform="matrix(1,0,0,1,-4.60075569152832,0)" style="transform:matrix(1, 0, 0, 1, -4.60076, 0);animation-play-state:paused" ></circle>
<circle cx="873.9557590145746" cy="737.0145070475216" r="85.68237950902665" fill="#c3d9f9" transform="matrix(1,0,0,1,-5.399243354797363,0)" style="transform:matrix(1, 0, 0, 1, -5.39924, 0);animation-play-state:paused" ></circle>
<circle cx="959.6381385236012" cy="735.9280256850079" r="57.76703438894344" fill="#c3d9f9" transform="matrix(1,0,0,1,-6.180027961730957,0)" style="transform:matrix(1, 0, 0, 1, -6.18003, 0);animation-play-state:paused" ></circle>
<circle cx="1017.4051729125447" cy="741.9616031491573" r="34.374109940285976" fill="#c3d9f9" transform="matrix(1,0,0,1,-6.911351203918457,0)" style="transform:matrix(1, 0, 0, 1, -6.91135, 0);animation-play-state:paused" ></circle>
<circle cx="1051.7792828528306" cy="711.2985770690282" r="86.26474056030384" fill="#c3d9f9" transform="matrix(1,0,0,1,-7.57051944732666,0)" style="transform:matrix(1, 0, 0, 1, -7.57052, 0);animation-play-state:paused" ></circle>
<circle cx="1138.0440234131345" cy="719.1635038768602" r="57.175551700837616" fill="#c3d9f9" transform="matrix(1,0,0,1,-8.1453218460083,0)" style="transform:matrix(1, 0, 0, 1, -8.14532, 0);animation-play-state:paused" ></circle>
<circle cx="1195.219575113972" cy="712.8103932873554" r="58.31780818570057" fill="#c3d9f9" transform="matrix(1,0,0,1,-8.632266998291016,0)" style="transform:matrix(1, 0, 0, 1, -8.63227, 0);animation-play-state:paused" ></circle>
<circle cx="1253.5373832996727" cy="695.3320238821224" r="71.59907977670288" fill="#c3d9f9" transform="matrix(1,0,0,1,-9.033674240112305,0)" style="transform:matrix(1, 0, 0, 1, -9.03367, 0);animation-play-state:paused" ></circle>
<circle cx="1325.1364630763755" cy="694.7261059996194" r="63.7283303078054" fill="#c3d9f9" transform="matrix(1,0,0,1,-9.355050086975098,0)" style="transform:matrix(1, 0, 0, 1, -9.35505, 0);animation-play-state:paused" ></circle>
<circle cx="1388.864793384181" cy="706.9276205871404" r="46.71112601044059" fill="#c3d9f9" transform="matrix(1,0,0,1,-9.60324478149414,0)" style="transform:matrix(1, 0, 0, 1, -9.60324, 0);animation-play-state:paused" ></circle>
<circle cx="1435.5759193946217" cy="716.4679035844409" r="35.6625441936682" fill="#c3d9f9" transform="matrix(1,0,0,1,-9.785362243652344,0)" style="transform:matrix(1, 0, 0, 1, -9.78536, 0);animation-play-state:paused" ></circle>
<circle cx="1471.23846358829" cy="669.888360163029" r="71.171786980658" fill="#c3d9f9" transform="matrix(1,0,0,1,-9.908178329467773,0)" style="transform:matrix(1, 0, 0, 1, -9.90818, 0);animation-play-state:paused" ></circle>
<circle cx="0" cy="729.6289184356976" r="76.14256797025197" fill="#e8eafc" transform="matrix(1,0,0,1,0,0)" style="transform:matrix(1, 0, 0, 1, 0, 0);animation-play-state:paused" ></circle>
<circle cx="76.14256797025197" cy="734.3015228282148" r="80.79286456177405" fill="#e8eafc" transform="matrix(1,0,0,1,-0.05069185048341751,0)" style="transform:matrix(1, 0, 0, 1, -0.0506919, 0);animation-play-state:paused" ></circle>
<circle cx="156.93543253202603" cy="738.1136412271338" r="88.32346792368241" fill="#e8eafc" transform="matrix(1,0,0,1,-0.21463724970817566,0)" style="transform:matrix(1, 0, 0, 1, -0.214637, 0);animation-play-state:paused" ></circle>
<circle cx="245.25890045570844" cy="778.9545900693008" r="53.138955069690375" fill="#e8eafc" transform="matrix(1,0,0,1,-0.5121520161628723,0)" style="transform:matrix(1, 0, 0, 1, -0.512152, 0);animation-play-state:paused" ></circle>
<circle cx="298.3978555253988" cy="787.919386665408" r="47.07843226340836" fill="#e8eafc" transform="matrix(1,0,0,1,-0.9663259983062744,0)" style="transform:matrix(1, 0, 0, 1, -0.966326, 0);animation-play-state:paused" ></circle>
<circle cx="345.4762877888072" cy="782.4043560652436" r="61.831562610902026" fill="#e8eafc" transform="matrix(1,0,0,1,-1.6002674102783203,0)" style="transform:matrix(1, 0, 0, 1, -1.60027, 0);animation-play-state:paused" ></circle>
<circle cx="407.30785039970925" cy="804.6334849514183" r="31.40439899659035" fill="#e8eafc" transform="matrix(1,0,0,1,-2.429480791091919,0)" style="transform:matrix(1, 0, 0, 1, -2.42948, 0);animation-play-state:paused" ></circle>
<circle cx="438.7122493962996" cy="795.0664718630561" r="55.31743507767828" fill="#e8eafc" transform="matrix(1,0,0,1,-3.4464619159698486,0)" style="transform:matrix(1, 0, 0, 1, -3.44646, 0);animation-play-state:paused" ></circle>
<circle cx="494.0296844739779" cy="791.9055483539648" r="77.25205386815882" fill="#e8eafc" transform="matrix(1,0,0,1,-4.600757122039795,0)" style="transform:matrix(1, 0, 0, 1, -4.60076, 0);animation-play-state:paused" ></circle>
<circle cx="571.2817383421367" cy="801.0246538964374" r="80.59001987066227" fill="#e8eafc" transform="matrix(1,0,0,1,-5.794002532958984,0)" style="transform:matrix(1, 0, 0, 1, -5.794, 0);animation-play-state:paused" ></circle>
<circle cx="651.871758212799" cy="815.4292079746081" r="49.06152173536809" fill="#e8eafc" transform="matrix(1,0,0,1,-6.911351680755615,0)" style="transform:matrix(1, 0, 0, 1, -6.91135, 0);animation-play-state:paused" ></circle>
<circle cx="700.9332799481671" cy="819.953596828992" r="32.92867891792812" fill="#e8eafc" transform="matrix(1,0,0,1,-7.868857383728027,0)" style="transform:matrix(1, 0, 0, 1, -7.86886, 0);animation-play-state:paused" ></circle>
<circle cx="733.8619588660952" cy="820.2825955958626" r="31.052079048885613" fill="#e8eafc" transform="matrix(1,0,0,1,-8.632266998291016,0)" style="transform:matrix(1, 0, 0, 1, -8.63227, 0);animation-play-state:paused" ></circle>
<circle cx="764.9140379149808" cy="817.3076854737151" r="49.32508450842313" fill="#e8eafc" transform="matrix(1,0,0,1,-9.203954696655273,0)" style="transform:matrix(1, 0, 0, 1, -9.20395, 0);animation-play-state:paused" ></circle>
<circle cx="814.239122423404" cy="806.8918843098719" r="89.82330476344339" fill="#e8eafc" transform="matrix(1,0,0,1,-9.603245735168457,0)" style="transform:matrix(1, 0, 0, 1, -9.60325, 0);animation-play-state:paused" ></circle>
<circle cx="904.0624271868473" cy="803.8312366698641" r="55.9661097352824" fill="#e8eafc" transform="matrix(1,0,0,1,-9.853781700134277,0)" style="transform:matrix(1, 0, 0, 1, -9.85378, 0);animation-play-state:paused" ></circle>
<circle cx="960.0285369221298" cy="796.158764084594" r="62.0957063704428" fill="#e8eafc" transform="matrix(1,0,0,1,-9.977882385253906,0)" style="transform:matrix(1, 0, 0, 1, -9.97788, 0);animation-play-state:paused" ></circle>
<circle cx="1022.1242432925726" cy="778.52106586843" r="84.36052731544761" fill="#e8eafc" transform="matrix(1,0,0,1,-9.994569778442383,0)" style="transform:matrix(1, 0, 0, 1, -9.99457, 0);animation-play-state:paused" ></circle>
<circle cx="1106.4847706080202" cy="771.2681274748484" r="77.20646655273873" fill="#e8eafc" transform="matrix(1,0,0,1,-9.908178329467773,0)" style="transform:matrix(1, 0, 0, 1, -9.90818, 0);animation-play-state:paused" ></circle>
<circle cx="1183.6912371607589" cy="780.9637314615761" r="51.80551021438888" fill="#e8eafc" transform="matrix(1,0,0,1,-9.702127456665039,0)" style="transform:matrix(1, 0, 0, 1, -9.70213, 0);animation-play-state:paused" ></circle>
<circle cx="1235.4967473751478" cy="784.7265848075847" r="42.21956632368549" fill="#e8eafc" transform="matrix(1,0,0,1,-9.355048179626465,0)" style="transform:matrix(1, 0, 0, 1, -9.35505, 0);animation-play-state:paused" ></circle>
<circle cx="1277.7163136988333" cy="752.5094255901336" r="73.68323937554885" fill="#e8eafc" transform="matrix(1,0,0,1,-8.843366622924805,0)" style="transform:matrix(1, 0, 0, 1, -8.84337, 0);animation-play-state:paused" ></circle>
<circle cx="1351.3995530743823" cy="775.3670472185231" r="43.36362218751942" fill="#e8eafc" transform="matrix(1,0,0,1,-8.145318984985352,0)" style="transform:matrix(1, 0, 0, 1, -8.14532, 0);animation-play-state:paused" ></circle>
<circle cx="1394.7631752619018" cy="781.602890110353" r="35.031944244161345" fill="#e8eafc" transform="matrix(1,0,0,1,-7.250951766967773,0)" style="transform:matrix(1, 0, 0, 1, -7.25095, 0);animation-play-state:paused" ></circle>
<circle cx="1429.7951195060632" cy="776.8330257304686" r="37.33497714123469" fill="#e8eafc" transform="matrix(1,0,0,1,-6.180024147033691,0)" style="transform:matrix(1, 0, 0, 1, -6.18002, 0);animation-play-state:paused" ></circle>
<circle cx="1467.130096647298" cy="764.9846858456855" r="44.984385776196085" fill="#e8eafc" transform="matrix(1,0,0,1,-4.999997615814209,0)" style="transform:matrix(1, 0, 0, 1, -5, 0);animation-play-state:paused" ></circle>
<circle cx="1512.114482423494" cy="779.8337077527991" r="31.182077712745446" fill="#e8eafc" transform="matrix(1,0,0,1,-3.8199687004089355,0)" style="transform:matrix(1, 0, 0, 1, -3.81997, 0);animation-play-state:paused" ></circle>
<circle cx="0" cy="833.0597278769866" r="41.61689343584452" fill="#ffffff" transform="matrix(1,0,0,1,0,0)" style="transform:matrix(1, 0, 0, 1, 0, 0);animation-play-state:paused" ></circle>
<circle cx="41.61689343584452" cy="831.991277869336" r="45.11496967164526" fill="#ffffff" transform="matrix(1,0,0,1,-0.09182170033454895,0)" style="transform:matrix(1, 0, 0, 1, -0.0918217, 0);animation-play-state:paused" ></circle>
<circle cx="86.73186310748977" cy="828.5691400760727" r="51.571386671393114" fill="#ffffff" transform="matrix(1,0,0,1,-0.3967548906803131,0)" style="transform:matrix(1, 0, 0, 1, -0.396755, 0);animation-play-state:paused" ></circle>
<circle cx="138.3032497788829" cy="825.4954108048024" r="59.31398706285227" fill="#ffffff" transform="matrix(1,0,0,1,-0.9663257002830505,0)" style="transform:matrix(1, 0, 0, 1, -0.966326, 0);animation-play-state:paused" ></circle>
<circle cx="197.61723684173518" cy="826.6319120476152" r="64.74343174524743" fill="#ffffff" transform="matrix(1,0,0,1,-1.8546782732009888,0)" style="transform:matrix(1, 0, 0, 1, -1.85468, 0);animation-play-state:paused" ></circle>
<circle cx="262.3606685869826" cy="836.1201294219547" r="61.463078927195276" fill="#ffffff" transform="matrix(1,0,0,1,-3.0886495113372803,0)" style="transform:matrix(1, 0, 0, 1, -3.08865, 0);animation-play-state:paused" ></circle>
<circle cx="323.8237475141779" cy="861.1940221176224" r="33.02466174419379" fill="#ffffff" transform="matrix(1,0,0,1,-4.60075569152832,0)" style="transform:matrix(1, 0, 0, 1, -4.60076, 0);animation-play-state:paused" ></circle>
<circle cx="356.8484092583717" cy="829.9797053373186" r="87.60026834149903" fill="#ffffff" transform="matrix(1,0,0,1,-6.180027961730957,0)" style="transform:matrix(1, 0, 0, 1, -6.18003, 0);animation-play-state:paused" ></circle>
<circle cx="444.44867759987073" cy="851.8314363938928" r="67.86807626532934" fill="#ffffff" transform="matrix(1,0,0,1,-7.57051944732666,0)" style="transform:matrix(1, 0, 0, 1, -7.57052, 0);animation-play-state:paused" ></circle>
<circle cx="512.3167538652001" cy="858.6405057643667" r="70.37494267541189" fill="#ffffff" transform="matrix(1,0,0,1,-8.632266998291016,0)" style="transform:matrix(1, 0, 0, 1, -8.63227, 0);animation-play-state:paused" ></circle>
<circle cx="582.6916965406119" cy="875.3250698995604" r="33.53736040898509" fill="#ffffff" transform="matrix(1,0,0,1,-9.355050086975098,0)" style="transform:matrix(1, 0, 0, 1, -9.35505, 0);animation-play-state:paused" ></circle>
<circle cx="616.2290569495971" cy="872.5633338707845" r="60.34444222490828" fill="#ffffff" transform="matrix(1,0,0,1,-9.785362243652344,0)" style="transform:matrix(1, 0, 0, 1, -9.78536, 0);animation-play-state:paused" ></circle>
<circle cx="676.5734991745053" cy="877.6372779960928" r="74.093770881381" fill="#ffffff" transform="matrix(1,0,0,1,-9.977882385253906,0)" style="transform:matrix(1, 0, 0, 1, -9.97788, 0);animation-play-state:paused" ></circle>
<circle cx="750.6672700558863" cy="881.075450508992" r="37.6534883118198" fill="#ffffff" transform="matrix(1,0,0,1,-9.977882385253906,0)" style="transform:matrix(1, 0, 0, 1, -9.97788, 0);animation-play-state:paused" ></circle>
<circle cx="788.3207583677062" cy="873.6968731362692" r="81.70102691478486" fill="#ffffff" transform="matrix(1,0,0,1,-9.78536319732666,0)" style="transform:matrix(1, 0, 0, 1, -9.78536, 0);animation-play-state:paused" ></circle>
<circle cx="870.021785282491" cy="865.4381050790752" r="70.23737874278389" fill="#ffffff" transform="matrix(1,0,0,1,-9.355049133300781,0)" style="transform:matrix(1, 0, 0, 1, -9.35505, 0);animation-play-state:paused" ></circle>
<circle cx="940.2591640252749" cy="857.1703105549485" r="70.36172018364937" fill="#ffffff" transform="matrix(1,0,0,1,-8.632266998291016,0)" style="transform:matrix(1, 0, 0, 1, -8.63227, 0);animation-play-state:paused" ></circle>
<circle cx="1010.6208842089243" cy="858.0872650545075" r="51.43347150698839" fill="#ffffff" transform="matrix(1,0,0,1,-7.57051944732666,0)" style="transform:matrix(1, 0, 0, 1, -7.57052, 0);animation-play-state:paused" ></circle>
<circle cx="1062.0543557159126" cy="861.2855737361148" r="38.08943093580087" fill="#ffffff" transform="matrix(1,0,0,1,-6.180026531219482,0)" style="transform:matrix(1, 0, 0, 1, -6.18003, 0);animation-play-state:paused" ></circle>
<circle cx="1100.1437866517135" cy="856.4572023453708" r="41.893828472247435" fill="#ffffff" transform="matrix(1,0,0,1,-4.600756645202637,0)" style="transform:matrix(1, 0, 0, 1, -4.60076, 0);animation-play-state:paused" ></circle>
<circle cx="1142.037615123961" cy="838.7522539706118" r="62.905880107001884" fill="#ffffff" transform="matrix(1,0,0,1,-3.088648796081543,0)" style="transform:matrix(1, 0, 0, 1, -3.08865, 0);animation-play-state:paused" ></circle>
<circle cx="1204.9434952309628" cy="843.0137176562098" r="49.473329660495" fill="#ffffff" transform="matrix(1,0,0,1,-1.8546791076660156,0)" style="transform:matrix(1, 0, 0, 1, -1.85468, 0);animation-play-state:paused" ></circle>
<circle cx="1254.4168248914577" cy="847.407274882723" r="39.96063386421947" fill="#ffffff" transform="matrix(1,0,0,1,-0.9663257598876953,0)" style="transform:matrix(1, 0, 0, 1, -0.966326, 0);animation-play-state:paused" ></circle>
<circle cx="1294.3774587556773" cy="816.6222082381004" r="69.33885452855286" fill="#ffffff" transform="matrix(1,0,0,1,-0.3967552185058594,0)" style="transform:matrix(1, 0, 0, 1, -0.396755, 0);animation-play-state:paused" ></circle>
<circle cx="1363.7163132842302" cy="826.6838137619164" r="52.49161943784767" fill="#ffffff" transform="matrix(1,0,0,1,-0.09182167053222656,0)" style="transform:matrix(1, 0, 0, 1, -0.0918217, 0);animation-play-state:paused" ></circle>
<circle cx="1416.2079327220779" cy="823.455903534306" r="51.31578685082031" fill="#ffffff" transform="matrix(1,0,0,1,0,0)" style="transform:matrix(1, 0, 0, 1, 0, 0);animation-play-state:paused" ></circle>
<circle cx="1467.5237195728982" cy="810.7865483240005" r="57.96213534248172" fill="#ffffff" transform="matrix(1,0,0,1,-0.09182170033454895,0)" style="transform:matrix(1, 0, 0, 1, -0.0918217, 0);animation-play-state:paused" ></circle></g></svg>
